<svg viewBox="0 0 574.3 128.1" xmlns="http://www.w3.org/2000/svg" xmlns:xlink="http://www.w3.org/1999/xlink"><clipPath id="a" transform="translate(-41.9 -327.7)"><path d="m41.9 327.7h128.1v128.13h-128.1z"/></clipPath><g clip-path="url(#a)"><path d="m149.2 383.6c0-5.8-3.7-9.7-6.8-9.7-16 0-34.3 26-37.1 41 36.1 6.8 43.9-19.3 43.9-31.3" fill="#be1622" transform="translate(-41.9 -327.7)"/><path d="m66.3 391.5c1.1-3.4 2.3-8.4-2.4-8.4a17.7 17.7 0 0 0 -5.4 1.3l-9 2.8-1.2-3.9 36.9-14.3c4.1.4 3.5 4.1 2.5 8.8l-15.2 68.6a65.7 65.7 0 0 0 13.2 6.1 74.7 74.7 0 0 1 -1.3-13.8c0-33.6 29.9-69.7 63.5-69.7 11.1 0 16 6.1 16 18.4 0 20.1-26.4 40.6-60.3 32.4-4.9 21.3 3.8 36.8 19.6 33.6a64 64 0 0 0 -17.3-125.7 61.6 61.6 0 0 0 -13.6 1.5 12.3 12.3 0 0 1 2.1 9.6c-1 6.8-6.1 13.6-14.1 13.6s-10.7-6.8-9.9-13.6a.6.6 0 0 0 .1-.4 64.1 64.1 0 0 0 -13.4 94.8" fill="#be1622" transform="translate(-41.9 -327.7)"/><g fill="#fff"><path d="m80.3 352.4c8 0 13.1-6.8 14.1-13.6a12.3 12.3 0 0 0 -2.1-9.6 64 64 0 0 0 -21.8 9.2.6.6 0 0 1 -.1.4c-.8 6.8 2.5 13.6 9.9 13.6" transform="translate(-41.9 -327.7)"/><path d="m103.6 419.8c33.9 8.2 60.3-12.3 60.3-32.4 0-12.3-4.9-18.4-16-18.4-33.6 0-63.5 36.1-63.5 69.7a74.7 74.7 0 0 0 1.3 13.8 63.5 63.5 0 0 0 37.5.9c-15.8 3.2-24.5-12.3-19.6-33.6m38.8-45.9c3.1 0 6.8 3.9 6.8 9.7 0 12-7.8 38.1-43.9 31.3 2.8-15 21.1-41 37.1-41z" transform="translate(-41.9 -327.7)"/><path d="m85.2 369-36.9 14.3 1.2 3.9 9-2.8a17.7 17.7 0 0 1 5.4-1.3c4.7 0 3.5 5 2.4 8.4l-9.2 41.7a64.9 64.9 0 0 0 15.4 13.2l15.2-68.6c1-4.7 1.6-8.4-2.5-8.8" transform="translate(-41.9 -327.7)"/></g></g><g transform="translate(-41.9 -327.7)"><path d="m203.4 411.9h-2.7v-41.2h2.7z" fill="#1d1d1b"/><path d="m203.4 411.9h-2.7v-41.2h2.7z" fill="none" stroke="#1d1d1b" stroke-width=".68"/><path d="m215.1 370.3 34.6 36.1v-35.7h2.6v42.2l-34.5-36.2v35.2h-2.7z" fill="#1d1d1b"/><path d="m215.1 370.3 34.6 36.1v-35.7h2.6v42.2l-34.5-36.2v35.2h-2.7z" fill="none" stroke="#1d1d1b" stroke-width=".68"/><path d="m271.4 411.9h-2.6v-38.7h-10.6v-2.5h23.9v2.5h-10.7z" fill="#1d1d1b"/><path d="m271.4 411.9h-2.6v-38.7h-10.6v-2.5h23.9v2.5h-10.7z" fill="none" stroke="#1d1d1b" stroke-width=".68"/><path d="m291.6 373.2v14.9h16.6v2.5h-16.6v18.8h17v2.5h-19.7v-41.2h19.7v2.5z" fill="#1d1d1b"/><path d="m291.6 373.2v14.9h16.6v2.5h-16.6v18.8h17v2.5h-19.7v-41.2h19.7v2.5z" fill="none" stroke="#1d1d1b" stroke-width=".68"/><path d="m338 411.9h-3.3l-13.2-19.5h-1.2v19.5h-2.7v-41.2h5.8c8.5 0 12.9 3.7 12.9 10.9 0 4.4-2 7.9-5.5 9.6-1.5.7-3.2 1-6.3 1.2zm-13.8-21.9c6 0 9.4-3.1 9.4-8.4s-3.3-8.4-9.9-8.4h-3.4v16.8z" fill="#1d1d1b"/><path d="m338 411.9h-3.3l-13.2-19.5h-1.2v19.5h-2.7v-41.2h5.8c8.5 0 12.9 3.7 12.9 10.9 0 4.4-2 7.9-5.5 9.6-1.5.7-3.2 1-6.3 1.2zm-13.8-21.9c6 0 9.4-3.1 9.4-8.4s-3.3-8.4-9.9-8.4h-3.4v16.8z" fill="none" stroke="#1d1d1b" stroke-width=".68"/><path d="m349 373.2v14.9h16.7v2.5h-16.7v18.8h17v2.5h-19.7v-41.2h19.7v2.5z" fill="#1d1d1b"/><path d="m349 373.2v14.9h16.7v2.5h-16.7v18.8h17v2.5h-19.7v-41.2h19.7v2.5z" fill="none" stroke="#1d1d1b" stroke-width=".68"/><path d="m375 370.3 34.6 36.1v-35.7h2.7v42.2l-34.6-36.2v35.2h-2.7z" fill="#1d1d1b"/><path d="m375 370.3 34.6 36.1v-35.7h2.7v42.2l-34.6-36.2v35.2h-2.7z" fill="none" stroke="#1d1d1b" stroke-width=".68"/><path d="m456.5 379.2c-3.9-4.3-8.5-6.5-13.9-6.5a18.7 18.7 0 1 0 13.9 31.1v3.6c-4.6 3.6-8.7 5.2-13.7 5.2-11.6 0-21.5-9.7-21.5-21.2a21.6 21.6 0 0 1 21.5-21.3 20.6 20.6 0 0 1 13.7 5.3z" fill="#1d1d1b"/><path d="m456.5 379.2c-3.9-4.3-8.5-6.5-13.9-6.5a18.7 18.7 0 1 0 13.9 31.1v3.6c-4.6 3.6-8.7 5.2-13.7 5.2-11.6 0-21.5-9.7-21.5-21.2a21.6 21.6 0 0 1 21.5-21.3 20.6 20.6 0 0 1 13.7 5.3z" fill="none" stroke="#1d1d1b" stroke-width=".68"/><path d="m493.6 388.2v-17.5h2.7v41.2h-2.7v-21.3h-25v21.3h-2.7v-41.2h2.7v17.5z" fill="#1d1d1b"/><path d="m493.6 388.2v-17.5h2.7v41.2h-2.7v-21.3h-25v21.3h-2.7v-41.2h2.7v17.5z" fill="none" stroke="#1d1d1b" stroke-width=".68"/><path d="m509.6 373.2v14.9h16.7v2.5h-16.7v18.8h17v2.5h-19.7v-41.2h19.7v2.5z" fill="#1d1d1b"/><path d="m509.6 373.2v14.9h16.7v2.5h-16.7v18.8h17v2.5h-19.7v-41.2h19.7v2.5z" fill="none" stroke="#1d1d1b" stroke-width=".68"/><path d="m556 411.9h-3.2l-13.3-19.5h-1.2v19.5h-2.6v-41.2h5.8c8.5 0 12.8 3.7 12.8 10.9 0 4.4-2 7.9-5.4 9.6a17.5 17.5 0 0 1 -6.3 1.2zm-13.7-21.9c5.9 0 9.3-3.1 9.3-8.4s-3.3-8.4-9.9-8.4h-3.4v16.8z" fill="#1d1d1b"/><path d="m556 411.9h-3.2l-13.3-19.5h-1.2v19.5h-2.6v-41.2h5.8c8.5 0 12.8 3.7 12.8 10.9 0 4.4-2 7.9-5.4 9.6a17.5 17.5 0 0 1 -6.3 1.2zm-13.7-21.9c5.9 0 9.3-3.1 9.3-8.4s-3.3-8.4-9.9-8.4h-3.4v16.8z" fill="none" stroke="#1d1d1b" stroke-width=".68"/><path d="m567 373.2v14.9h16.7v2.5h-16.7v18.8h17.1v2.5h-19.7v-41.2h19.7v2.5z" fill="#1d1d1b"/><path d="m567 373.2v14.9h16.7v2.5h-16.7v18.8h17.1v2.5h-19.7v-41.2h19.7v2.5z" fill="none" stroke="#1d1d1b" stroke-width=".68"/><path d="m611.8 377.6c-2.4-3.6-4.6-4.9-8.1-4.9a7.6 7.6 0 0 0 -7.7 7.7c0 3.4 1.6 5.2 7.3 7.9a84.9 84.9 0 0 1 8.2 4.2 9.2 9.2 0 0 1 4.3 8.1c0 6.5-5.9 12-12.9 12s-9.7-3-12.1-8.9l2.3-1.1c2.5 5.3 5.3 7.4 9.8 7.4a9.9 9.9 0 0 0 10.1-9.7c0-2.5-1.4-4.7-4-6.2l-4.1-2.2-1.2-.5-1.2-.6-1.2-.6c-6.3-3.1-8.1-5.3-8.1-10s4.5-10.1 10.5-10.1a11.1 11.1 0 0 1 10 5.9z" fill="#1d1d1b"/><path d="m611.8 377.6c-2.4-3.6-4.6-4.9-8.1-4.9a7.6 7.6 0 0 0 -7.7 7.7c0 3.4 1.6 5.2 7.3 7.9a84.9 84.9 0 0 1 8.2 4.2 9.2 9.2 0 0 1 4.3 8.1c0 6.5-5.9 12-12.9 12s-9.7-3-12.1-8.9l2.3-1.1c2.5 5.3 5.3 7.4 9.8 7.4a9.9 9.9 0 0 0 10.1-9.7c0-2.5-1.4-4.7-4-6.2l-4.1-2.2-1.2-.5-1.2-.6-1.2-.6c-6.3-3.1-8.1-5.3-8.1-10s4.5-10.1 10.5-10.1a11.1 11.1 0 0 1 10 5.9z" fill="none" stroke="#1d1d1b" stroke-width=".68"/></g></svg>